<mxfile host="app.diagrams.net" agent="Mozilla/5.0 (Windows NT 10.0; Win64; x64) AppleWebKit/537.36 (KHTML, like Gecko) Chrome/134.0.0.0 Safari/537.36" version="26.2.13" pages="2">
  <diagram id="w8bvL5eGYf7BupaeoSfH" name="EERD Diagram">
    <mxGraphModel dx="1249" dy="669" grid="1" gridSize="10" guides="1" tooltips="1" connect="1" arrows="1" fold="1" page="1" pageScale="1" pageWidth="1654" pageHeight="1169" math="0" shadow="0">
      <root>
        <mxCell id="0" />
        <mxCell id="1" parent="0" />
        <mxCell id="G-atSqY5vIS4pmYYb1XH-23" value="" style="ellipse;whiteSpace=wrap;html=1;" parent="1" vertex="1">
          <mxGeometry x="1147.3500000000001" y="307.61" width="80" height="50" as="geometry" />
        </mxCell>
        <mxCell id="G-atSqY5vIS4pmYYb1XH-22" value="" style="ellipse;whiteSpace=wrap;html=1;" parent="1" vertex="1">
          <mxGeometry x="1151.18" y="244.20999999999998" width="80" height="50" as="geometry" />
        </mxCell>
        <mxCell id="EOYmmG4OwO7RRhKwqkFR-4" value="" style="ellipse;whiteSpace=wrap;html=1;" parent="1" vertex="1">
          <mxGeometry x="706.34" y="730.22" width="90" height="60" as="geometry" />
        </mxCell>
        <mxCell id="EOYmmG4OwO7RRhKwqkFR-213" value="Type" style="text;html=1;align=center;verticalAlign=middle;resizable=0;points=[];autosize=1;strokeColor=none;fillColor=none;" parent="1" vertex="1">
          <mxGeometry x="225" y="392.5" width="50" height="30" as="geometry" />
        </mxCell>
        <mxCell id="EOYmmG4OwO7RRhKwqkFR-214" value="&lt;u&gt;ID&lt;/u&gt;" style="ellipse;whiteSpace=wrap;html=1;" parent="1" vertex="1">
          <mxGeometry x="544.0600000000001" y="749.77" width="70" height="40" as="geometry" />
        </mxCell>
        <mxCell id="EOYmmG4OwO7RRhKwqkFR-215" value="Fullname" style="ellipse;whiteSpace=wrap;html=1;" parent="1" vertex="1">
          <mxGeometry x="627.23" y="750.22" width="70" height="40" as="geometry" />
        </mxCell>
        <mxCell id="EOYmmG4OwO7RRhKwqkFR-216" value="Email" style="ellipse;whiteSpace=wrap;html=1;" parent="1" vertex="1">
          <mxGeometry x="716.34" y="740.22" width="70" height="40" as="geometry" />
        </mxCell>
        <mxCell id="EOYmmG4OwO7RRhKwqkFR-217" value="" style="endArrow=none;html=1;rounded=0;entryX=0;entryY=1;entryDx=0;entryDy=0;exitX=0.5;exitY=0;exitDx=0;exitDy=0;" parent="1" source="EOYmmG4OwO7RRhKwqkFR-214" target="EOYmmG4OwO7RRhKwqkFR-229" edge="1">
          <mxGeometry width="50" height="50" relative="1" as="geometry">
            <mxPoint x="662.34" y="659.77" as="sourcePoint" />
            <mxPoint x="712.34" y="609.77" as="targetPoint" />
          </mxGeometry>
        </mxCell>
        <mxCell id="EOYmmG4OwO7RRhKwqkFR-218" value="" style="endArrow=none;html=1;rounded=0;entryX=0.5;entryY=1;entryDx=0;entryDy=0;exitX=0.5;exitY=0;exitDx=0;exitDy=0;" parent="1" source="EOYmmG4OwO7RRhKwqkFR-215" target="EOYmmG4OwO7RRhKwqkFR-229" edge="1">
          <mxGeometry width="50" height="50" relative="1" as="geometry">
            <mxPoint x="612.34" y="719.77" as="sourcePoint" />
            <mxPoint x="662.34" y="669.77" as="targetPoint" />
          </mxGeometry>
        </mxCell>
        <mxCell id="EOYmmG4OwO7RRhKwqkFR-219" value="" style="endArrow=none;html=1;rounded=0;entryX=1;entryY=1;entryDx=0;entryDy=0;" parent="1" target="EOYmmG4OwO7RRhKwqkFR-229" edge="1">
          <mxGeometry width="50" height="50" relative="1" as="geometry">
            <mxPoint x="716.34" y="747.27" as="sourcePoint" />
            <mxPoint x="722.34" y="669.77" as="targetPoint" />
          </mxGeometry>
        </mxCell>
        <mxCell id="EOYmmG4OwO7RRhKwqkFR-229" value="&lt;b&gt;Customer&lt;/b&gt;" style="rounded=0;whiteSpace=wrap;html=1;" parent="1" vertex="1">
          <mxGeometry x="614.0613793103448" y="699.7745454545453" width="62.344827586206904" height="27.272727272727266" as="geometry" />
        </mxCell>
        <mxCell id="EOYmmG4OwO7RRhKwqkFR-230" value="" style="endArrow=none;html=1;rounded=0;entryX=0.5;entryY=1;entryDx=0;entryDy=0;exitX=0.5;exitY=1;exitDx=0;exitDy=0;" parent="1" source="EOYmmG4OwO7RRhKwqkFR-92" target="EOYmmG4OwO7RRhKwqkFR-92" edge="1">
          <mxGeometry width="50" height="50" relative="1" as="geometry">
            <mxPoint x="692.34" y="689.77" as="sourcePoint" />
            <mxPoint x="742.34" y="639.77" as="targetPoint" />
          </mxGeometry>
        </mxCell>
        <mxCell id="EOYmmG4OwO7RRhKwqkFR-231" value="" style="endArrow=none;html=1;rounded=0;entryX=0;entryY=0.5;entryDx=0;entryDy=0;exitX=1;exitY=0;exitDx=0;exitDy=0;" parent="1" source="EOYmmG4OwO7RRhKwqkFR-229" target="EOYmmG4OwO7RRhKwqkFR-93" edge="1">
          <mxGeometry width="50" height="50" relative="1" as="geometry">
            <mxPoint x="692.34" y="689.77" as="sourcePoint" />
            <mxPoint x="742.34" y="639.77" as="targetPoint" />
          </mxGeometry>
        </mxCell>
        <mxCell id="EOYmmG4OwO7RRhKwqkFR-232" value="" style="endArrow=none;html=1;rounded=0;entryX=0.5;entryY=1;entryDx=0;entryDy=0;exitX=0;exitY=0;exitDx=0;exitDy=0;" parent="1" source="EOYmmG4OwO7RRhKwqkFR-229" target="EOYmmG4OwO7RRhKwqkFR-91" edge="1">
          <mxGeometry width="50" height="50" relative="1" as="geometry">
            <mxPoint x="612.34" y="629.77" as="sourcePoint" />
            <mxPoint x="712.34" y="609.77" as="targetPoint" />
          </mxGeometry>
        </mxCell>
        <mxCell id="EOYmmG4OwO7RRhKwqkFR-233" value="1" style="endArrow=none;html=1;rounded=0;entryX=1;entryY=0.5;entryDx=0;entryDy=0;exitX=0;exitY=0.5;exitDx=0;exitDy=0;" parent="1" source="EOYmmG4OwO7RRhKwqkFR-229" target="EOYmmG4OwO7RRhKwqkFR-235" edge="1">
          <mxGeometry width="50" height="50" relative="1" as="geometry">
            <mxPoint x="584.06" y="719.77" as="sourcePoint" />
            <mxPoint x="634.06" y="669.77" as="targetPoint" />
          </mxGeometry>
        </mxCell>
        <mxCell id="EOYmmG4OwO7RRhKwqkFR-234" value="N" style="endArrow=none;html=1;rounded=0;entryX=1;entryY=1;entryDx=0;entryDy=0;exitX=0;exitY=0.5;exitDx=0;exitDy=0;" parent="1" source="EOYmmG4OwO7RRhKwqkFR-235" target="EOYmmG4OwO7RRhKwqkFR-156" edge="1">
          <mxGeometry width="50" height="50" relative="1" as="geometry">
            <mxPoint x="347.71999999999997" y="652.5" as="sourcePoint" />
            <mxPoint x="397.71999999999997" y="602.5" as="targetPoint" />
          </mxGeometry>
        </mxCell>
        <mxCell id="EOYmmG4OwO7RRhKwqkFR-235" value="Buy" style="rhombus;whiteSpace=wrap;html=1;" parent="1" vertex="1">
          <mxGeometry x="519.9968965517241" y="699.7745454545453" width="62.344827586206904" height="27.272727272727266" as="geometry" />
        </mxCell>
        <mxCell id="EOYmmG4OwO7RRhKwqkFR-236" value="1" style="endArrow=none;html=1;rounded=0;exitX=0;exitY=0.5;exitDx=0;exitDy=0;entryX=0.75;entryY=0;entryDx=0;entryDy=0;" parent="1" source="EOYmmG4OwO7RRhKwqkFR-88" target="EOYmmG4OwO7RRhKwqkFR-229" edge="1">
          <mxGeometry width="50" height="50" relative="1" as="geometry">
            <mxPoint x="782.34" y="719.77" as="sourcePoint" />
            <mxPoint x="662.34" y="629.77" as="targetPoint" />
          </mxGeometry>
        </mxCell>
        <mxCell id="EOYmmG4OwO7RRhKwqkFR-13" value="&lt;b&gt;Month&lt;/b&gt;" style="rounded=0;whiteSpace=wrap;html=1;" parent="1" vertex="1">
          <mxGeometry x="360.8203448275862" y="397.7272727272727" width="62.344827586206904" height="27.272727272727266" as="geometry" />
        </mxCell>
        <mxCell id="EOYmmG4OwO7RRhKwqkFR-15" value="&lt;b&gt;Day&lt;/b&gt;" style="rounded=0;whiteSpace=wrap;html=1;" parent="1" vertex="1">
          <mxGeometry x="428.97034482758625" y="191.93" width="62.344827586206904" height="27.272727272727266" as="geometry" />
        </mxCell>
        <mxCell id="EOYmmG4OwO7RRhKwqkFR-18" value="&lt;b&gt;Station&lt;/b&gt;" style="rounded=0;whiteSpace=wrap;html=1;" parent="1" vertex="1">
          <mxGeometry x="786.3351724137933" y="341.25272727272727" width="62.344827586206904" height="27.272727272727266" as="geometry" />
        </mxCell>
        <mxCell id="EOYmmG4OwO7RRhKwqkFR-19" value="Buy at" style="rhombus;whiteSpace=wrap;html=1;" parent="1" vertex="1">
          <mxGeometry x="475.6568965517242" y="469.4381818181818" width="62.344827586206904" height="27.272727272727266" as="geometry" />
        </mxCell>
        <mxCell id="EOYmmG4OwO7RRhKwqkFR-24" value="&lt;b&gt;d&lt;/b&gt;" style="ellipse;whiteSpace=wrap;html=1;aspect=fixed;" parent="1" vertex="1">
          <mxGeometry x="259.51" y="234.09090909090907" width="34.090909090909086" height="34.090909090909086" as="geometry" />
        </mxCell>
        <mxCell id="EOYmmG4OwO7RRhKwqkFR-25" value="" style="endArrow=none;html=1;rounded=0;entryX=0.125;entryY=0;entryDx=0;entryDy=0;entryPerimeter=0;" parent="1" target="EOYmmG4OwO7RRhKwqkFR-156" edge="1">
          <mxGeometry width="50" height="50" relative="1" as="geometry">
            <mxPoint x="275.09620689655173" y="268.18181818181813" as="sourcePoint" />
            <mxPoint x="446.5444827586207" y="254.5454545454545" as="targetPoint" />
          </mxGeometry>
        </mxCell>
        <mxCell id="EOYmmG4OwO7RRhKwqkFR-26" value="" style="endArrow=none;html=1;rounded=0;exitX=0.25;exitY=0;exitDx=0;exitDy=0;" parent="1" source="EOYmmG4OwO7RRhKwqkFR-156" edge="1">
          <mxGeometry width="50" height="50" relative="1" as="geometry">
            <mxPoint x="282.8893103448276" y="288.6363636363636" as="sourcePoint" />
            <mxPoint x="282.8893103448276" y="268.18181818181813" as="targetPoint" />
          </mxGeometry>
        </mxCell>
        <mxCell id="EOYmmG4OwO7RRhKwqkFR-27" value="" style="endArrow=none;html=1;rounded=0;entryX=0;entryY=0.5;entryDx=0;entryDy=0;exitX=0.5;exitY=0;exitDx=0;exitDy=0;strokeWidth=1;" parent="1" source="EOYmmG4OwO7RRhKwqkFR-24" target="EOYmmG4OwO7RRhKwqkFR-15" edge="1">
          <mxGeometry width="50" height="50" relative="1" as="geometry">
            <mxPoint x="391.9927586206897" y="234.09090909090907" as="sourcePoint" />
            <mxPoint x="430.958275862069" y="200" as="targetPoint" />
          </mxGeometry>
        </mxCell>
        <mxCell id="EOYmmG4OwO7RRhKwqkFR-29" value="" style="endArrow=none;html=1;rounded=0;entryX=1;entryY=1;entryDx=0;entryDy=0;exitX=0;exitY=0.5;exitDx=0;exitDy=0;" parent="1" source="EOYmmG4OwO7RRhKwqkFR-13" target="EOYmmG4OwO7RRhKwqkFR-24" edge="1">
          <mxGeometry width="50" height="50" relative="1" as="geometry">
            <mxPoint x="438.7513793103448" y="350" as="sourcePoint" />
            <mxPoint x="477.7168965517242" y="315.90909090909093" as="targetPoint" />
          </mxGeometry>
        </mxCell>
        <mxCell id="EOYmmG4OwO7RRhKwqkFR-31" value="" style="rounded=0;orthogonalLoop=1;jettySize=auto;html=1;endArrow=halfCircle;endFill=0;endSize=6;strokeWidth=1;sketch=0;fontSize=12;curved=1;" parent="1" edge="1">
          <mxGeometry relative="1" as="geometry">
            <mxPoint x="333.6479310344828" y="356.8181818181818" as="sourcePoint" />
            <mxPoint x="325.8548275862069" y="343.18181818181813" as="targetPoint" />
          </mxGeometry>
        </mxCell>
        <mxCell id="EOYmmG4OwO7RRhKwqkFR-32" value="" style="rounded=0;orthogonalLoop=1;jettySize=auto;html=1;endArrow=halfCircle;endFill=0;endSize=6;strokeWidth=1;sketch=0;fontSize=12;curved=1;exitX=0;exitY=0.5;exitDx=0;exitDy=0;" parent="1" edge="1">
          <mxGeometry relative="1" as="geometry">
            <mxPoint x="428.97034482758636" y="204.5663636363637" as="sourcePoint" />
            <mxPoint x="360" y="219" as="targetPoint" />
          </mxGeometry>
        </mxCell>
        <mxCell id="EOYmmG4OwO7RRhKwqkFR-49" value="Expired Date" style="ellipse;whiteSpace=wrap;html=1;" parent="1" vertex="1">
          <mxGeometry x="559.87" y="235.33999999999995" width="80" height="40" as="geometry" />
        </mxCell>
        <mxCell id="EOYmmG4OwO7RRhKwqkFR-50" value="Price" style="ellipse;whiteSpace=wrap;html=1;" parent="1" vertex="1">
          <mxGeometry x="491.32000000000005" y="241.93" width="46.34" height="31.82" as="geometry" />
        </mxCell>
        <mxCell id="EOYmmG4OwO7RRhKwqkFR-51" value="" style="endArrow=none;html=1;rounded=0;entryX=0;entryY=0.5;entryDx=0;entryDy=0;exitX=0.5;exitY=1;exitDx=0;exitDy=0;" parent="1" source="EOYmmG4OwO7RRhKwqkFR-15" target="EOYmmG4OwO7RRhKwqkFR-50" edge="1">
          <mxGeometry width="50" height="50" relative="1" as="geometry">
            <mxPoint x="477.65999999999997" y="321.93" as="sourcePoint" />
            <mxPoint x="527.66" y="271.93" as="targetPoint" />
          </mxGeometry>
        </mxCell>
        <mxCell id="EOYmmG4OwO7RRhKwqkFR-52" value="" style="endArrow=none;html=1;rounded=0;entryX=1;entryY=1;entryDx=0;entryDy=0;exitX=0;exitY=0.5;exitDx=0;exitDy=0;" parent="1" source="EOYmmG4OwO7RRhKwqkFR-49" target="EOYmmG4OwO7RRhKwqkFR-15" edge="1">
          <mxGeometry width="50" height="50" relative="1" as="geometry">
            <mxPoint x="637.66" y="321.93" as="sourcePoint" />
            <mxPoint x="687.66" y="271.93" as="targetPoint" />
          </mxGeometry>
        </mxCell>
        <mxCell id="EOYmmG4OwO7RRhKwqkFR-85" value="Price" style="ellipse;whiteSpace=wrap;html=1;" parent="1" vertex="1">
          <mxGeometry x="423.17" y="428.17999999999995" width="46.34" height="31.82" as="geometry" />
        </mxCell>
        <mxCell id="EOYmmG4OwO7RRhKwqkFR-86" value="" style="endArrow=none;html=1;rounded=0;entryX=0.5;entryY=1;entryDx=0;entryDy=0;exitX=0;exitY=0.5;exitDx=0;exitDy=0;" parent="1" source="EOYmmG4OwO7RRhKwqkFR-85" target="EOYmmG4OwO7RRhKwqkFR-13" edge="1">
          <mxGeometry width="50" height="50" relative="1" as="geometry">
            <mxPoint x="589.51" y="420" as="sourcePoint" />
            <mxPoint x="639.51" y="370" as="targetPoint" />
          </mxGeometry>
        </mxCell>
        <mxCell id="EOYmmG4OwO7RRhKwqkFR-87" value="&lt;b&gt;Feedback Form&lt;/b&gt;" style="rounded=0;whiteSpace=wrap;html=1;" parent="1" vertex="1">
          <mxGeometry x="821.18" y="579.43" width="72.34" height="27.27" as="geometry" />
        </mxCell>
        <mxCell id="EOYmmG4OwO7RRhKwqkFR-88" value="Feedback" style="rhombus;whiteSpace=wrap;html=1;" parent="1" vertex="1">
          <mxGeometry x="697.23" y="579.43" width="80" height="37.27" as="geometry" />
        </mxCell>
        <mxCell id="EOYmmG4OwO7RRhKwqkFR-89" value="" style="endArrow=none;html=1;rounded=0;exitX=1;exitY=0.5;exitDx=0;exitDy=0;entryX=-0.003;entryY=0.693;entryDx=0;entryDy=0;entryPerimeter=0;" parent="1" source="EOYmmG4OwO7RRhKwqkFR-88" target="EOYmmG4OwO7RRhKwqkFR-87" edge="1">
          <mxGeometry width="50" height="50" relative="1" as="geometry">
            <mxPoint x="823.37" y="557.27" as="sourcePoint" />
            <mxPoint x="873.37" y="507.27" as="targetPoint" />
          </mxGeometry>
        </mxCell>
        <mxCell id="EOYmmG4OwO7RRhKwqkFR-90" value="N" style="endArrow=none;html=1;rounded=0;entryX=1;entryY=0;entryDx=0;entryDy=0;exitX=0.004;exitY=0.319;exitDx=0;exitDy=0;exitPerimeter=0;" parent="1" source="EOYmmG4OwO7RRhKwqkFR-87" target="EOYmmG4OwO7RRhKwqkFR-88" edge="1">
          <mxGeometry width="50" height="50" relative="1" as="geometry">
            <mxPoint x="823.37" y="557.27" as="sourcePoint" />
            <mxPoint x="873.37" y="507.27" as="targetPoint" />
          </mxGeometry>
        </mxCell>
        <mxCell id="EOYmmG4OwO7RRhKwqkFR-91" value="Address" style="ellipse;whiteSpace=wrap;html=1;" parent="1" vertex="1">
          <mxGeometry x="520.0600000000001" y="616.6999999999999" width="70" height="40" as="geometry" />
        </mxCell>
        <mxCell id="EOYmmG4OwO7RRhKwqkFR-92" value="Date of Birth" style="ellipse;whiteSpace=wrap;html=1;" parent="1" vertex="1">
          <mxGeometry x="584.12" y="587.27" width="70" height="40" as="geometry" />
        </mxCell>
        <mxCell id="EOYmmG4OwO7RRhKwqkFR-93" value="Gender" style="ellipse;whiteSpace=wrap;html=1;" parent="1" vertex="1">
          <mxGeometry x="701.07" y="652.27" width="70" height="40" as="geometry" />
        </mxCell>
        <mxCell id="EOYmmG4OwO7RRhKwqkFR-94" value="&lt;u&gt;ID&lt;/u&gt;" style="ellipse;whiteSpace=wrap;html=1;" parent="1" vertex="1">
          <mxGeometry x="900" y="519.9999999999999" width="60" height="40" as="geometry" />
        </mxCell>
        <mxCell id="EOYmmG4OwO7RRhKwqkFR-95" value="Status" style="ellipse;whiteSpace=wrap;html=1;" parent="1" vertex="1">
          <mxGeometry x="904.26" y="587.27" width="60" height="40" as="geometry" />
        </mxCell>
        <mxCell id="EOYmmG4OwO7RRhKwqkFR-96" value="Content" style="ellipse;whiteSpace=wrap;html=1;" parent="1" vertex="1">
          <mxGeometry x="904.26" y="642.27" width="60" height="40" as="geometry" />
        </mxCell>
        <mxCell id="EOYmmG4OwO7RRhKwqkFR-97" value="" style="endArrow=none;html=1;rounded=0;entryX=0;entryY=0.5;entryDx=0;entryDy=0;exitX=1;exitY=0;exitDx=0;exitDy=0;" parent="1" source="EOYmmG4OwO7RRhKwqkFR-87" edge="1">
          <mxGeometry width="50" height="50" relative="1" as="geometry">
            <mxPoint x="801.85" y="637.27" as="sourcePoint" />
            <mxPoint x="906.34" y="550.2199999999998" as="targetPoint" />
          </mxGeometry>
        </mxCell>
        <mxCell id="EOYmmG4OwO7RRhKwqkFR-98" value="" style="endArrow=none;html=1;rounded=0;entryX=1;entryY=1;entryDx=0;entryDy=0;exitX=0;exitY=0.5;exitDx=0;exitDy=0;" parent="1" source="EOYmmG4OwO7RRhKwqkFR-96" target="EOYmmG4OwO7RRhKwqkFR-87" edge="1">
          <mxGeometry width="50" height="50" relative="1" as="geometry">
            <mxPoint x="801.85" y="637.27" as="sourcePoint" />
            <mxPoint x="851.85" y="587.27" as="targetPoint" />
          </mxGeometry>
        </mxCell>
        <mxCell id="EOYmmG4OwO7RRhKwqkFR-99" value="" style="endArrow=none;html=1;rounded=0;entryX=0;entryY=0.5;entryDx=0;entryDy=0;exitX=1;exitY=0.5;exitDx=0;exitDy=0;" parent="1" source="EOYmmG4OwO7RRhKwqkFR-87" target="EOYmmG4OwO7RRhKwqkFR-95" edge="1">
          <mxGeometry width="50" height="50" relative="1" as="geometry">
            <mxPoint x="801.85" y="637.27" as="sourcePoint" />
            <mxPoint x="851.85" y="587.27" as="targetPoint" />
          </mxGeometry>
        </mxCell>
        <mxCell id="EOYmmG4OwO7RRhKwqkFR-141" value="Type" style="ellipse;whiteSpace=wrap;html=1;" parent="1" vertex="1">
          <mxGeometry x="935.9899999999998" y="376.97" width="60" height="40" as="geometry" />
        </mxCell>
        <mxCell id="EOYmmG4OwO7RRhKwqkFR-142" value="" style="endArrow=none;html=1;rounded=0;entryX=0;entryY=0.5;entryDx=0;entryDy=0;exitX=1;exitY=1;exitDx=0;exitDy=0;" parent="1" source="EOYmmG4OwO7RRhKwqkFR-18" target="EOYmmG4OwO7RRhKwqkFR-141" edge="1">
          <mxGeometry width="50" height="50" relative="1" as="geometry">
            <mxPoint x="848.6800000000001" y="480.11" as="sourcePoint" />
            <mxPoint x="898.6800000000001" y="430.11" as="targetPoint" />
          </mxGeometry>
        </mxCell>
        <mxCell id="EOYmmG4OwO7RRhKwqkFR-143" value="Route counts" style="ellipse;whiteSpace=wrap;html=1;" parent="1" vertex="1">
          <mxGeometry x="863.1700000000001" y="398.53000000000003" width="60" height="40" as="geometry" />
        </mxCell>
        <mxCell id="EOYmmG4OwO7RRhKwqkFR-144" value="" style="endArrow=none;html=1;rounded=0;entryX=0;entryY=0;entryDx=0;entryDy=0;exitX=1;exitY=1;exitDx=0;exitDy=0;" parent="1" source="EOYmmG4OwO7RRhKwqkFR-18" target="EOYmmG4OwO7RRhKwqkFR-143" edge="1">
          <mxGeometry width="50" height="50" relative="1" as="geometry">
            <mxPoint x="998.6800000000001" y="468.97" as="sourcePoint" />
            <mxPoint x="1048.68" y="418.97" as="targetPoint" />
          </mxGeometry>
        </mxCell>
        <mxCell id="EOYmmG4OwO7RRhKwqkFR-152" value="&lt;u&gt;Ticket ID&lt;/u&gt;" style="ellipse;whiteSpace=wrap;html=1;" parent="1" vertex="1">
          <mxGeometry x="293.6" y="550.22" width="80" height="40" as="geometry" />
        </mxCell>
        <mxCell id="EOYmmG4OwO7RRhKwqkFR-153" value="Published Date" style="ellipse;whiteSpace=wrap;html=1;" parent="1" vertex="1">
          <mxGeometry x="200" y="520" width="80" height="40" as="geometry" />
        </mxCell>
        <mxCell id="EOYmmG4OwO7RRhKwqkFR-154" value="" style="endArrow=none;html=1;rounded=0;entryX=0.25;entryY=1;entryDx=0;entryDy=0;exitX=0.5;exitY=0;exitDx=0;exitDy=0;" parent="1" source="EOYmmG4OwO7RRhKwqkFR-153" target="EOYmmG4OwO7RRhKwqkFR-156" edge="1">
          <mxGeometry width="50" height="50" relative="1" as="geometry">
            <mxPoint x="299.51" y="509.43000000000006" as="sourcePoint" />
            <mxPoint x="349.51" y="459.43" as="targetPoint" />
          </mxGeometry>
        </mxCell>
        <mxCell id="EOYmmG4OwO7RRhKwqkFR-155" value="" style="endArrow=none;html=1;rounded=0;entryX=0.5;entryY=0;entryDx=0;entryDy=0;exitX=0.5;exitY=0;exitDx=0;exitDy=0;" parent="1" source="EOYmmG4OwO7RRhKwqkFR-152" target="EOYmmG4OwO7RRhKwqkFR-152" edge="1">
          <mxGeometry width="50" height="50" relative="1" as="geometry">
            <mxPoint x="299.51" y="509.43000000000006" as="sourcePoint" />
            <mxPoint x="349.51" y="459.43" as="targetPoint" />
          </mxGeometry>
        </mxCell>
        <mxCell id="EOYmmG4OwO7RRhKwqkFR-156" value="&lt;b&gt;Ticket&lt;/b&gt;" style="rounded=0;whiteSpace=wrap;html=1;" parent="1" vertex="1">
          <mxGeometry x="269.02310344827583" y="469.43454545454534" width="62.344827586206904" height="27.272727272727266" as="geometry" />
        </mxCell>
        <mxCell id="EOYmmG4OwO7RRhKwqkFR-157" value="&lt;b&gt;U&lt;/b&gt;" style="ellipse;whiteSpace=wrap;html=1;aspect=fixed;" parent="1" vertex="1">
          <mxGeometry x="1059.17" y="331.48" width="40" height="40" as="geometry" />
        </mxCell>
        <mxCell id="EOYmmG4OwO7RRhKwqkFR-158" value="&lt;b&gt;Train Station&lt;/b&gt;" style="rounded=0;whiteSpace=wrap;html=1;" parent="1" vertex="1">
          <mxGeometry x="1151.1751724137932" y="191.93272727272728" width="62.344827586206904" height="27.272727272727266" as="geometry" />
        </mxCell>
        <mxCell id="EOYmmG4OwO7RRhKwqkFR-159" value="&lt;b&gt;Bus Station&lt;/b&gt;" style="rounded=0;whiteSpace=wrap;html=1;" parent="1" vertex="1">
          <mxGeometry x="1156.1751724137932" y="385.7927272727273" width="62.344827586206904" height="27.272727272727266" as="geometry" />
        </mxCell>
        <mxCell id="EOYmmG4OwO7RRhKwqkFR-160" value="" style="endArrow=none;html=1;rounded=0;entryX=0;entryY=0.5;entryDx=0;entryDy=0;exitX=1;exitY=0;exitDx=0;exitDy=0;" parent="1" source="EOYmmG4OwO7RRhKwqkFR-157" target="EOYmmG4OwO7RRhKwqkFR-158" edge="1">
          <mxGeometry width="50" height="50" relative="1" as="geometry">
            <mxPoint x="1044.0600000000002" y="506.71" as="sourcePoint" />
            <mxPoint x="1094.0600000000002" y="456.71" as="targetPoint" />
          </mxGeometry>
        </mxCell>
        <mxCell id="EOYmmG4OwO7RRhKwqkFR-161" value="" style="endArrow=none;html=1;rounded=0;entryX=1;entryY=1;entryDx=0;entryDy=0;exitX=0;exitY=0.5;exitDx=0;exitDy=0;" parent="1" source="EOYmmG4OwO7RRhKwqkFR-159" target="EOYmmG4OwO7RRhKwqkFR-157" edge="1">
          <mxGeometry width="50" height="50" relative="1" as="geometry">
            <mxPoint x="1044.0600000000002" y="506.71" as="sourcePoint" />
            <mxPoint x="1094.0600000000002" y="456.71" as="targetPoint" />
          </mxGeometry>
        </mxCell>
        <mxCell id="EOYmmG4OwO7RRhKwqkFR-162" value="Address" style="ellipse;whiteSpace=wrap;html=1;" parent="1" vertex="1">
          <mxGeometry x="1241.18" y="191.93" width="60" height="40" as="geometry" />
        </mxCell>
        <mxCell id="EOYmmG4OwO7RRhKwqkFR-163" value="Name" style="ellipse;whiteSpace=wrap;html=1;" parent="1" vertex="1">
          <mxGeometry x="1231.18" y="142.16" width="60" height="40" as="geometry" />
        </mxCell>
        <mxCell id="EOYmmG4OwO7RRhKwqkFR-164" value="&lt;u&gt;ID&lt;/u&gt;" style="ellipse;whiteSpace=wrap;html=1;" parent="1" vertex="1">
          <mxGeometry x="1241.18" y="249.21000000000004" width="60" height="40" as="geometry" />
        </mxCell>
        <mxCell id="EOYmmG4OwO7RRhKwqkFR-165" value="Capacity" style="ellipse;whiteSpace=wrap;html=1;" parent="1" vertex="1">
          <mxGeometry x="1161.18" y="138.98000000000002" width="60" height="40" as="geometry" />
        </mxCell>
        <mxCell id="EOYmmG4OwO7RRhKwqkFR-166" value="Address" style="ellipse;whiteSpace=wrap;html=1;" parent="1" vertex="1">
          <mxGeometry x="1158.52" y="456.71" width="60" height="40" as="geometry" />
        </mxCell>
        <mxCell id="EOYmmG4OwO7RRhKwqkFR-167" value="Capacity" style="ellipse;whiteSpace=wrap;html=1;" parent="1" vertex="1">
          <mxGeometry x="1243.8400000000001" y="441.71" width="60" height="40" as="geometry" />
        </mxCell>
        <mxCell id="EOYmmG4OwO7RRhKwqkFR-168" value="&lt;u&gt;ID&lt;/u&gt;" style="ellipse;whiteSpace=wrap;html=1;" parent="1" vertex="1">
          <mxGeometry x="1243.8400000000001" y="379.43" width="60" height="40" as="geometry" />
        </mxCell>
        <mxCell id="EOYmmG4OwO7RRhKwqkFR-169" value="Name" style="ellipse;whiteSpace=wrap;html=1;" parent="1" vertex="1">
          <mxGeometry x="1243.8400000000001" y="326.71000000000004" width="60" height="40" as="geometry" />
        </mxCell>
        <mxCell id="EOYmmG4OwO7RRhKwqkFR-170" value="Type" style="ellipse;whiteSpace=wrap;html=1;" parent="1" vertex="1">
          <mxGeometry x="1161.18" y="249.21000000000004" width="60" height="40" as="geometry" />
        </mxCell>
        <mxCell id="EOYmmG4OwO7RRhKwqkFR-171" value="" style="endArrow=none;html=1;rounded=0;entryX=0.5;entryY=1;entryDx=0;entryDy=0;exitX=0.5;exitY=0;exitDx=0;exitDy=0;" parent="1" source="EOYmmG4OwO7RRhKwqkFR-158" target="EOYmmG4OwO7RRhKwqkFR-165" edge="1">
          <mxGeometry width="50" height="50" relative="1" as="geometry">
            <mxPoint x="1101.18" y="329.21000000000004" as="sourcePoint" />
            <mxPoint x="1151.18" y="279.21000000000004" as="targetPoint" />
          </mxGeometry>
        </mxCell>
        <mxCell id="EOYmmG4OwO7RRhKwqkFR-172" value="" style="endArrow=none;html=1;rounded=0;entryX=0.5;entryY=1;entryDx=0;entryDy=0;exitX=1;exitY=0;exitDx=0;exitDy=0;" parent="1" source="EOYmmG4OwO7RRhKwqkFR-158" target="EOYmmG4OwO7RRhKwqkFR-163" edge="1">
          <mxGeometry width="50" height="50" relative="1" as="geometry">
            <mxPoint x="1031.18" y="339.21000000000004" as="sourcePoint" />
            <mxPoint x="1081.18" y="289.21000000000004" as="targetPoint" />
          </mxGeometry>
        </mxCell>
        <mxCell id="EOYmmG4OwO7RRhKwqkFR-173" value="" style="endArrow=none;html=1;rounded=0;entryX=0;entryY=0.5;entryDx=0;entryDy=0;exitX=1;exitY=0.5;exitDx=0;exitDy=0;" parent="1" source="EOYmmG4OwO7RRhKwqkFR-158" target="EOYmmG4OwO7RRhKwqkFR-162" edge="1">
          <mxGeometry width="50" height="50" relative="1" as="geometry">
            <mxPoint x="1031.18" y="339.21000000000004" as="sourcePoint" />
            <mxPoint x="1081.18" y="289.21000000000004" as="targetPoint" />
          </mxGeometry>
        </mxCell>
        <mxCell id="EOYmmG4OwO7RRhKwqkFR-174" value="" style="endArrow=none;html=1;rounded=0;entryX=0;entryY=0;entryDx=0;entryDy=0;exitX=1;exitY=1;exitDx=0;exitDy=0;" parent="1" source="EOYmmG4OwO7RRhKwqkFR-158" target="EOYmmG4OwO7RRhKwqkFR-164" edge="1">
          <mxGeometry width="50" height="50" relative="1" as="geometry">
            <mxPoint x="1031.18" y="339.21000000000004" as="sourcePoint" />
            <mxPoint x="1081.18" y="289.21000000000004" as="targetPoint" />
          </mxGeometry>
        </mxCell>
        <mxCell id="EOYmmG4OwO7RRhKwqkFR-175" value="" style="endArrow=none;html=1;rounded=0;entryX=0.5;entryY=1;entryDx=0;entryDy=0;exitX=0.5;exitY=0;exitDx=0;exitDy=0;" parent="1" source="EOYmmG4OwO7RRhKwqkFR-170" target="EOYmmG4OwO7RRhKwqkFR-158" edge="1">
          <mxGeometry width="50" height="50" relative="1" as="geometry">
            <mxPoint x="1191.1800000000003" y="241.70999999999998" as="sourcePoint" />
            <mxPoint x="1081.18" y="289.21000000000004" as="targetPoint" />
          </mxGeometry>
        </mxCell>
        <mxCell id="EOYmmG4OwO7RRhKwqkFR-176" value="" style="endArrow=none;html=1;rounded=0;entryX=1;entryY=0;entryDx=0;entryDy=0;exitX=0;exitY=1;exitDx=0;exitDy=0;" parent="1" source="EOYmmG4OwO7RRhKwqkFR-169" target="EOYmmG4OwO7RRhKwqkFR-159" edge="1">
          <mxGeometry width="50" height="50" relative="1" as="geometry">
            <mxPoint x="1033.8400000000001" y="326.71000000000004" as="sourcePoint" />
            <mxPoint x="1083.8400000000001" y="276.71000000000004" as="targetPoint" />
          </mxGeometry>
        </mxCell>
        <mxCell id="EOYmmG4OwO7RRhKwqkFR-177" value="" style="endArrow=none;html=1;rounded=0;entryX=0;entryY=0.5;entryDx=0;entryDy=0;exitX=1;exitY=0.5;exitDx=0;exitDy=0;" parent="1" source="EOYmmG4OwO7RRhKwqkFR-159" target="EOYmmG4OwO7RRhKwqkFR-168" edge="1">
          <mxGeometry width="50" height="50" relative="1" as="geometry">
            <mxPoint x="1033.8400000000001" y="326.71000000000004" as="sourcePoint" />
            <mxPoint x="1083.8400000000001" y="276.71000000000004" as="targetPoint" />
          </mxGeometry>
        </mxCell>
        <mxCell id="EOYmmG4OwO7RRhKwqkFR-178" value="" style="endArrow=none;html=1;rounded=0;entryX=0;entryY=0;entryDx=0;entryDy=0;exitX=1;exitY=1;exitDx=0;exitDy=0;" parent="1" source="EOYmmG4OwO7RRhKwqkFR-159" target="EOYmmG4OwO7RRhKwqkFR-167" edge="1">
          <mxGeometry width="50" height="50" relative="1" as="geometry">
            <mxPoint x="1033.8400000000001" y="326.71000000000004" as="sourcePoint" />
            <mxPoint x="1083.8400000000001" y="276.71000000000004" as="targetPoint" />
          </mxGeometry>
        </mxCell>
        <mxCell id="EOYmmG4OwO7RRhKwqkFR-179" value="" style="endArrow=none;html=1;rounded=0;entryX=0.5;entryY=0;entryDx=0;entryDy=0;exitX=0.5;exitY=1;exitDx=0;exitDy=0;" parent="1" source="EOYmmG4OwO7RRhKwqkFR-159" target="EOYmmG4OwO7RRhKwqkFR-166" edge="1">
          <mxGeometry width="50" height="50" relative="1" as="geometry">
            <mxPoint x="1033.8400000000001" y="326.71000000000004" as="sourcePoint" />
            <mxPoint x="1083.8400000000001" y="276.71000000000004" as="targetPoint" />
          </mxGeometry>
        </mxCell>
        <mxCell id="EOYmmG4OwO7RRhKwqkFR-209" value="Type" style="ellipse;whiteSpace=wrap;html=1;" parent="1" vertex="1">
          <mxGeometry x="1157.3500000000001" y="312.61" width="60" height="40" as="geometry" />
        </mxCell>
        <mxCell id="EOYmmG4OwO7RRhKwqkFR-210" value="" style="endArrow=none;html=1;rounded=0;entryX=0.5;entryY=0;entryDx=0;entryDy=0;exitX=0.5;exitY=1;exitDx=0;exitDy=0;" parent="1" source="EOYmmG4OwO7RRhKwqkFR-209" target="EOYmmG4OwO7RRhKwqkFR-159" edge="1">
          <mxGeometry width="50" height="50" relative="1" as="geometry">
            <mxPoint x="1262.68" y="371.16" as="sourcePoint" />
            <mxPoint x="1228.68" y="396.16" as="targetPoint" />
          </mxGeometry>
        </mxCell>
        <mxCell id="EOYmmG4OwO7RRhKwqkFR-211" value="N" style="endArrow=none;html=1;rounded=0;entryX=1;entryY=0.5;entryDx=0;entryDy=0;exitX=0;exitY=0.5;exitDx=0;exitDy=0;" parent="1" source="EOYmmG4OwO7RRhKwqkFR-19" target="EOYmmG4OwO7RRhKwqkFR-156" edge="1">
          <mxGeometry width="50" height="50" relative="1" as="geometry">
            <mxPoint x="343.51" y="560" as="sourcePoint" />
            <mxPoint x="325.51" y="507" as="targetPoint" />
          </mxGeometry>
        </mxCell>
        <mxCell id="EOYmmG4OwO7RRhKwqkFR-212" value="" style="endArrow=none;html=1;rounded=0;entryX=1;entryY=0.75;entryDx=0;entryDy=0;exitX=0;exitY=1;exitDx=0;exitDy=0;" parent="1" source="EOYmmG4OwO7RRhKwqkFR-19" target="EOYmmG4OwO7RRhKwqkFR-156" edge="1">
          <mxGeometry width="50" height="50" relative="1" as="geometry">
            <mxPoint x="343.51" y="560" as="sourcePoint" />
            <mxPoint x="325.51" y="507" as="targetPoint" />
          </mxGeometry>
        </mxCell>
        <mxCell id="G-atSqY5vIS4pmYYb1XH-7" value="" style="rounded=0;orthogonalLoop=1;jettySize=auto;html=1;endArrow=halfCircle;endFill=0;endSize=6;strokeWidth=1;sketch=0;fontSize=12;curved=1;exitX=1;exitY=0.5;exitDx=0;exitDy=0;" parent="1" source="EOYmmG4OwO7RRhKwqkFR-18" edge="1">
          <mxGeometry relative="1" as="geometry">
            <mxPoint x="911.0200000000002" y="363.529090909091" as="sourcePoint" />
            <mxPoint x="923.1700000000001" y="354.98" as="targetPoint" />
          </mxGeometry>
        </mxCell>
        <mxCell id="G-atSqY5vIS4pmYYb1XH-8" value="" style="endArrow=none;html=1;rounded=0;entryX=0;entryY=0.5;entryDx=0;entryDy=0;exitX=1;exitY=0.5;exitDx=0;exitDy=0;" parent="1" source="EOYmmG4OwO7RRhKwqkFR-18" target="EOYmmG4OwO7RRhKwqkFR-157" edge="1">
          <mxGeometry width="50" height="50" relative="1" as="geometry">
            <mxPoint x="863.1700000000001" y="308.98" as="sourcePoint" />
            <mxPoint x="913.1700000000001" y="258.98" as="targetPoint" />
          </mxGeometry>
        </mxCell>
        <mxCell id="r4A8E0FVsbpf8WF6JfFZ-2" value="" style="endArrow=none;html=1;rounded=0;entryX=0.5;entryY=1;entryDx=0;entryDy=0;exitX=0.608;exitY=0.051;exitDx=0;exitDy=0;exitPerimeter=0;" edge="1" parent="1" source="EOYmmG4OwO7RRhKwqkFR-152" target="EOYmmG4OwO7RRhKwqkFR-156">
          <mxGeometry width="50" height="50" relative="1" as="geometry">
            <mxPoint x="280" y="530" as="sourcePoint" />
            <mxPoint x="295" y="507" as="targetPoint" />
          </mxGeometry>
        </mxCell>
        <mxCell id="r4A8E0FVsbpf8WF6JfFZ-3" value="" style="endArrow=none;html=1;rounded=0;exitX=1;exitY=0.5;exitDx=0;exitDy=0;" edge="1" parent="1" source="EOYmmG4OwO7RRhKwqkFR-19">
          <mxGeometry width="50" height="50" relative="1" as="geometry">
            <mxPoint x="830" y="360" as="sourcePoint" />
            <mxPoint x="790" y="360" as="targetPoint" />
          </mxGeometry>
        </mxCell>
        <mxCell id="r4A8E0FVsbpf8WF6JfFZ-4" value="M" style="edgeLabel;html=1;align=center;verticalAlign=middle;resizable=0;points=[];" vertex="1" connectable="0" parent="r4A8E0FVsbpf8WF6JfFZ-3">
          <mxGeometry x="-0.5096" y="2" relative="1" as="geometry">
            <mxPoint as="offset" />
          </mxGeometry>
        </mxCell>
        <mxCell id="r4A8E0FVsbpf8WF6JfFZ-5" value="Expired Date" style="ellipse;whiteSpace=wrap;html=1;" vertex="1" parent="1">
          <mxGeometry x="435.84999999999997" y="358.53" width="80" height="40" as="geometry" />
        </mxCell>
        <mxCell id="r4A8E0FVsbpf8WF6JfFZ-6" value="" style="endArrow=none;html=1;rounded=0;entryX=0.75;entryY=0;entryDx=0;entryDy=0;exitX=0;exitY=0.5;exitDx=0;exitDy=0;" edge="1" parent="1" target="EOYmmG4OwO7RRhKwqkFR-13">
          <mxGeometry width="50" height="50" relative="1" as="geometry">
            <mxPoint x="440.82" y="385.79" as="sourcePoint" />
            <mxPoint x="371.82" y="349.79" as="targetPoint" />
          </mxGeometry>
        </mxCell>
        <mxCell id="r4A8E0FVsbpf8WF6JfFZ-7" value="" style="endArrow=none;html=1;rounded=0;entryX=0.5;entryY=1;entryDx=0;entryDy=0;exitX=0.25;exitY=0;exitDx=0;exitDy=0;" edge="1" parent="1" source="EOYmmG4OwO7RRhKwqkFR-229" target="EOYmmG4OwO7RRhKwqkFR-92">
          <mxGeometry width="50" height="50" relative="1" as="geometry">
            <mxPoint x="624" y="710" as="sourcePoint" />
            <mxPoint x="565" y="667" as="targetPoint" />
          </mxGeometry>
        </mxCell>
      </root>
    </mxGraphModel>
  </diagram>
  <diagram id="OmaCeMxDQHyZHoPnMh-1" name="Mapping">
    <mxGraphModel dx="1332" dy="713" grid="1" gridSize="10" guides="1" tooltips="1" connect="1" arrows="1" fold="1" page="1" pageScale="1" pageWidth="1169" pageHeight="1654" math="0" shadow="0">
      <root>
        <mxCell id="0" />
        <mxCell id="1" parent="0" />
        <mxCell id="I6CR4W8xnP3kJ_g0KGb4-1" value="&lt;u&gt;T_ID&lt;/u&gt;" style="rounded=0;whiteSpace=wrap;html=1;" parent="1" vertex="1">
          <mxGeometry x="73.98297297297297" y="83.43214876033058" width="49.2972972972973" height="26.776859504132233" as="geometry" />
        </mxCell>
        <mxCell id="I6CR4W8xnP3kJ_g0KGb4-2" value="T_Name" style="rounded=0;whiteSpace=wrap;html=1;" parent="1" vertex="1">
          <mxGeometry x="123.28" y="83.43" width="56.72" height="26.78" as="geometry" />
        </mxCell>
        <mxCell id="I6CR4W8xnP3kJ_g0KGb4-3" value="T_Address" style="rounded=0;whiteSpace=wrap;html=1;" parent="1" vertex="1">
          <mxGeometry x="180" y="83.41" width="80.58" height="26.78" as="geometry" />
        </mxCell>
        <mxCell id="I6CR4W8xnP3kJ_g0KGb4-10" value="&lt;b&gt;Train Station&lt;/b&gt;" style="text;html=1;align=center;verticalAlign=middle;whiteSpace=wrap;rounded=0;" parent="1" vertex="1">
          <mxGeometry x="52.4" y="63.35" width="77.6" height="20.08" as="geometry" />
        </mxCell>
        <mxCell id="I6CR4W8xnP3kJ_g0KGb4-11" value="&lt;b&gt;Bus Station&lt;/b&gt;" style="text;html=1;align=center;verticalAlign=middle;whiteSpace=wrap;rounded=0;" parent="1" vertex="1">
          <mxGeometry x="57.02" y="127.15" width="82.98" height="20.08" as="geometry" />
        </mxCell>
        <mxCell id="24dlo2Oe-C9Dlj7PTrNW-3" style="edgeStyle=orthogonalEdgeStyle;rounded=0;orthogonalLoop=1;jettySize=auto;html=1;entryX=0.75;entryY=0;entryDx=0;entryDy=0;" edge="1" parent="1" source="I6CR4W8xnP3kJ_g0KGb4-13" target="I6CR4W8xnP3kJ_g0KGb4-14">
          <mxGeometry relative="1" as="geometry">
            <Array as="points">
              <mxPoint x="430" y="96" />
              <mxPoint x="430" y="210" />
              <mxPoint x="129" y="210" />
            </Array>
          </mxGeometry>
        </mxCell>
        <mxCell id="I6CR4W8xnP3kJ_g0KGb4-13" value="Station_ID" style="rounded=0;whiteSpace=wrap;html=1;" parent="1" vertex="1">
          <mxGeometry x="345" y="82.6" width="60" height="27.58" as="geometry" />
        </mxCell>
        <mxCell id="I6CR4W8xnP3kJ_g0KGb4-14" value="&lt;u&gt;Station_ID&lt;/u&gt;" style="rounded=0;whiteSpace=wrap;html=1;" parent="1" vertex="1">
          <mxGeometry x="74.25" y="234.56" width="73.03" height="34.38" as="geometry" />
        </mxCell>
        <mxCell id="I6CR4W8xnP3kJ_g0KGb4-15" value="Route Counts" style="rounded=0;whiteSpace=wrap;html=1;" parent="1" vertex="1">
          <mxGeometry x="147.28" y="234.56" width="55.46" height="34.38" as="geometry" />
        </mxCell>
        <mxCell id="I6CR4W8xnP3kJ_g0KGb4-56" value="&lt;u&gt;Customer ID&lt;/u&gt;" style="rounded=0;whiteSpace=wrap;html=1;" parent="1" vertex="1">
          <mxGeometry x="528.4691891891893" y="330.08223140495875" width="73.94594594594595" height="26.776859504132233" as="geometry" />
        </mxCell>
        <mxCell id="I6CR4W8xnP3kJ_g0KGb4-57" value="C_Name" style="rounded=0;whiteSpace=wrap;html=1;" parent="1" vertex="1">
          <mxGeometry x="602.4200000000001" y="330.0799999999999" width="78.46" height="26.78" as="geometry" />
        </mxCell>
        <mxCell id="I6CR4W8xnP3kJ_g0KGb4-58" value="C_Address" style="rounded=0;whiteSpace=wrap;html=1;" parent="1" vertex="1">
          <mxGeometry x="680.8800000000001" y="330.0799999999999" width="69.43" height="26.78" as="geometry" />
        </mxCell>
        <mxCell id="I6CR4W8xnP3kJ_g0KGb4-59" value="Date of Birth" style="rounded=0;whiteSpace=wrap;html=1;" parent="1" vertex="1">
          <mxGeometry x="749.07" y="330.0799999999999" width="81.81" height="26.78" as="geometry" />
        </mxCell>
        <mxCell id="I6CR4W8xnP3kJ_g0KGb4-60" value="Gender" style="rounded=0;whiteSpace=wrap;html=1;" parent="1" vertex="1">
          <mxGeometry x="830.8770270270271" y="330.08223140495875" width="61.62162162162163" height="26.776859504132233" as="geometry" />
        </mxCell>
        <mxCell id="I6CR4W8xnP3kJ_g0KGb4-61" value="&lt;b&gt;Customer&lt;/b&gt;" style="text;html=1;align=center;verticalAlign=middle;whiteSpace=wrap;rounded=0;" parent="1" vertex="1">
          <mxGeometry x="495.0000000000001" y="309.94" width="73.95" height="20.08" as="geometry" />
        </mxCell>
        <mxCell id="I6CR4W8xnP3kJ_g0KGb4-66" value="&lt;u&gt;F_ID&lt;/u&gt;" style="rounded=0;whiteSpace=wrap;html=1;" parent="1" vertex="1">
          <mxGeometry x="527.9991891891892" y="514.100826446281" width="73.94594594594595" height="26.776859504132233" as="geometry" />
        </mxCell>
        <mxCell id="I6CR4W8xnP3kJ_g0KGb4-67" value="Status" style="rounded=0;whiteSpace=wrap;html=1;" parent="1" vertex="1">
          <mxGeometry x="601.9451351351352" y="514.100826446281" width="73.32972972972973" height="26.776859504132233" as="geometry" />
        </mxCell>
        <mxCell id="I6CR4W8xnP3kJ_g0KGb4-68" value="&lt;b&gt;Feedback Form&lt;/b&gt;" style="text;html=1;align=center;verticalAlign=middle;whiteSpace=wrap;rounded=0;" parent="1" vertex="1">
          <mxGeometry x="519.8000000000001" y="494.02" width="108.69" height="20.08" as="geometry" />
        </mxCell>
        <mxCell id="I6CR4W8xnP3kJ_g0KGb4-70" value="Content" style="rounded=0;whiteSpace=wrap;html=1;" parent="1" vertex="1">
          <mxGeometry x="675.274864864865" y="514.100826446281" width="73.32972972972973" height="26.776859504132233" as="geometry" />
        </mxCell>
        <mxCell id="0aOix7UilM6wZBq1rscu-7" style="edgeStyle=orthogonalEdgeStyle;rounded=0;orthogonalLoop=1;jettySize=auto;html=1;entryX=0.75;entryY=1;entryDx=0;entryDy=0;" edge="1" parent="1" source="hl6_Cl64KRyEJuut5keU-3" target="I6CR4W8xnP3kJ_g0KGb4-56">
          <mxGeometry relative="1" as="geometry">
            <Array as="points">
              <mxPoint x="785.49" y="416.70000000000005" />
              <mxPoint x="583.49" y="416.70000000000005" />
            </Array>
          </mxGeometry>
        </mxCell>
        <mxCell id="hl6_Cl64KRyEJuut5keU-3" value="Customer ID" style="rounded=0;whiteSpace=wrap;html=1;" parent="1" vertex="1">
          <mxGeometry x="748.6045945945947" y="514.100826446281" width="73.94594594594595" height="26.776859504132233" as="geometry" />
        </mxCell>
        <mxCell id="rYrEV2N6IXelQXsVLYJF-2" style="edgeStyle=orthogonalEdgeStyle;rounded=0;orthogonalLoop=1;jettySize=auto;html=1;exitX=0.5;exitY=0;exitDx=0;exitDy=0;" edge="1" parent="1" source="24dlo2Oe-C9Dlj7PTrNW-13" target="SmtdMZKrvZ-XnopJ3ixH-1">
          <mxGeometry relative="1" as="geometry">
            <Array as="points">
              <mxPoint x="355" y="220" />
              <mxPoint x="460" y="220" />
              <mxPoint x="460" y="99" />
            </Array>
          </mxGeometry>
        </mxCell>
        <mxCell id="SmtdMZKrvZ-XnopJ3ixH-1" value="&lt;u&gt;T_ID&lt;/u&gt;" style="rounded=0;whiteSpace=wrap;html=1;" parent="1" vertex="1">
          <mxGeometry x="641.0100000000001" y="80.6" width="52.89" height="36.4" as="geometry" />
        </mxCell>
        <mxCell id="SmtdMZKrvZ-XnopJ3ixH-2" value="Published Date" style="rounded=0;whiteSpace=wrap;html=1;" parent="1" vertex="1">
          <mxGeometry x="693.9" y="80.6" width="106.1" height="36.4" as="geometry" />
        </mxCell>
        <mxCell id="rYrEV2N6IXelQXsVLYJF-6" style="edgeStyle=orthogonalEdgeStyle;rounded=0;orthogonalLoop=1;jettySize=auto;html=1;" edge="1" parent="1" source="SmtdMZKrvZ-XnopJ3ixH-3" target="I6CR4W8xnP3kJ_g0KGb4-56">
          <mxGeometry relative="1" as="geometry">
            <Array as="points">
              <mxPoint x="846" y="40" />
              <mxPoint x="566" y="40" />
            </Array>
          </mxGeometry>
        </mxCell>
        <mxCell id="SmtdMZKrvZ-XnopJ3ixH-3" value="Customer ID" style="rounded=0;whiteSpace=wrap;html=1;" parent="1" vertex="1">
          <mxGeometry x="800" y="80.6" width="92.5" height="36.4" as="geometry" />
        </mxCell>
        <mxCell id="24dlo2Oe-C9Dlj7PTrNW-6" style="edgeStyle=orthogonalEdgeStyle;rounded=0;orthogonalLoop=1;jettySize=auto;html=1;entryX=0.5;entryY=1;entryDx=0;entryDy=0;" edge="1" parent="1" source="SmtdMZKrvZ-XnopJ3ixH-5" target="SmtdMZKrvZ-XnopJ3ixH-1">
          <mxGeometry relative="1" as="geometry" />
        </mxCell>
        <mxCell id="SmtdMZKrvZ-XnopJ3ixH-5" value="&lt;u&gt;DT_ID&lt;/u&gt;" style="rounded=0;whiteSpace=wrap;html=1;" parent="1" vertex="1">
          <mxGeometry x="641.0100000000001" y="159.99999999999997" width="73.31" height="27.5" as="geometry" />
        </mxCell>
        <mxCell id="SmtdMZKrvZ-XnopJ3ixH-6" value="Expired Date" style="rounded=0;whiteSpace=wrap;html=1;" parent="1" vertex="1">
          <mxGeometry x="714.32" y="159.99999999999997" width="79.36" height="27.5" as="geometry" />
        </mxCell>
        <mxCell id="SmtdMZKrvZ-XnopJ3ixH-9" value="&lt;b&gt;Ticket&lt;/b&gt;" style="text;html=1;align=center;verticalAlign=middle;whiteSpace=wrap;rounded=0;" parent="1" vertex="1">
          <mxGeometry x="640.798918918919" y="60.519504132231404" width="36.972972972972975" height="20.082644628099175" as="geometry" />
        </mxCell>
        <mxCell id="SmtdMZKrvZ-XnopJ3ixH-10" value="&lt;b&gt;Day Ticket&lt;/b&gt;" style="text;html=1;align=center;verticalAlign=middle;whiteSpace=wrap;rounded=0;" parent="1" vertex="1">
          <mxGeometry x="633.09" y="139.92" width="74.41" height="20.08" as="geometry" />
        </mxCell>
        <mxCell id="24dlo2Oe-C9Dlj7PTrNW-7" style="edgeStyle=orthogonalEdgeStyle;rounded=0;orthogonalLoop=1;jettySize=auto;html=1;entryX=0;entryY=0.25;entryDx=0;entryDy=0;" edge="1" parent="1" source="SmtdMZKrvZ-XnopJ3ixH-20" target="SmtdMZKrvZ-XnopJ3ixH-1">
          <mxGeometry relative="1" as="geometry">
            <Array as="points">
              <mxPoint x="620" y="256" />
              <mxPoint x="620" y="180" />
              <mxPoint x="621" y="90" />
            </Array>
          </mxGeometry>
        </mxCell>
        <mxCell id="SmtdMZKrvZ-XnopJ3ixH-20" value="&lt;u&gt;MT_ID&lt;/u&gt;" style="rounded=0;whiteSpace=wrap;html=1;" parent="1" vertex="1">
          <mxGeometry x="640.8000000000001" y="242.16" width="76.15" height="26.78" as="geometry" />
        </mxCell>
        <mxCell id="SmtdMZKrvZ-XnopJ3ixH-21" value="&lt;b&gt;Month Ticket&lt;/b&gt;" style="text;html=1;align=center;verticalAlign=middle;whiteSpace=wrap;rounded=0;" parent="1" vertex="1">
          <mxGeometry x="640.8" y="222.08" width="79.96" height="20.08" as="geometry" />
        </mxCell>
        <mxCell id="z0MDv4UA0KnPyn8Nqr2p-1" value="Expired Date" style="rounded=0;whiteSpace=wrap;html=1;" parent="1" vertex="1">
          <mxGeometry x="772.48" y="242.16" width="77.52" height="26.78" as="geometry" />
        </mxCell>
        <mxCell id="z0MDv4UA0KnPyn8Nqr2p-4" value="Price" style="rounded=0;whiteSpace=wrap;html=1;" parent="1" vertex="1">
          <mxGeometry x="716.3967567567569" y="242.16462809917357" width="55.45945945945946" height="26.776859504132233" as="geometry" />
        </mxCell>
        <mxCell id="0aOix7UilM6wZBq1rscu-6" style="edgeStyle=orthogonalEdgeStyle;rounded=0;orthogonalLoop=1;jettySize=auto;html=1;entryX=0.5;entryY=1;entryDx=0;entryDy=0;" edge="1" parent="1" source="Cm9vffUlyfi80HBgD6EM-1" target="I6CR4W8xnP3kJ_g0KGb4-56">
          <mxGeometry relative="1" as="geometry" />
        </mxCell>
        <mxCell id="Cm9vffUlyfi80HBgD6EM-1" value="Customer ID" style="rounded=0;whiteSpace=wrap;html=1;" parent="1" vertex="1">
          <mxGeometry x="525.1291891891892" y="440.5396694214876" width="85.65405405405406" height="26.776859504132233" as="geometry" />
        </mxCell>
        <mxCell id="Cm9vffUlyfi80HBgD6EM-2" value="Email" style="rounded=0;whiteSpace=wrap;html=1;" parent="1" vertex="1">
          <mxGeometry x="611.0913513513515" y="440.5396694214876" width="73.32972972972973" height="26.776859504132233" as="geometry" />
        </mxCell>
        <mxCell id="Cm9vffUlyfi80HBgD6EM-4" value="" style="endArrow=none;html=1;rounded=0;exitX=0.156;exitY=0.753;exitDx=0;exitDy=0;exitPerimeter=0;" parent="1" edge="1" source="Cm9vffUlyfi80HBgD6EM-1">
          <mxGeometry width="50" height="50" relative="1" as="geometry">
            <mxPoint x="553.4751351351352" y="460.62231404958675" as="sourcePoint" />
            <mxPoint x="668.49" y="460.70000000000005" as="targetPoint" />
          </mxGeometry>
        </mxCell>
        <mxCell id="MQMkjLeEkTM9A1LQ0o_q-2" value="T_Capacity" style="rounded=0;whiteSpace=wrap;html=1;" parent="1" vertex="1">
          <mxGeometry x="260.58" y="83.3" width="84.06" height="27" as="geometry" />
        </mxCell>
        <mxCell id="YcwJo7IF91_OcFXiD9OY-6" value="Price" style="rounded=0;whiteSpace=wrap;html=1;" parent="1" vertex="1">
          <mxGeometry x="794.53" y="160" width="45.58" height="27.5" as="geometry" />
        </mxCell>
        <mxCell id="I6CR4W8xnP3kJ_g0KGb4-16" value="&lt;b&gt;Station&lt;/b&gt;" style="text;html=1;align=center;verticalAlign=middle;whiteSpace=wrap;rounded=0;" parent="1" vertex="1">
          <mxGeometry x="45.400000000000006" y="214.48000000000002" width="62.1" height="20.08" as="geometry" />
        </mxCell>
        <mxCell id="3hG0GHVjgq0r3S_JtBMw-3" style="edgeStyle=orthogonalEdgeStyle;rounded=0;orthogonalLoop=1;jettySize=auto;html=1;entryX=0;entryY=0.5;entryDx=0;entryDy=0;exitX=0;exitY=0.25;exitDx=0;exitDy=0;strokeColor=light-dark(#000000,#3419FF);" parent="1" source="D6_6w9MPEdJIobG7vo4f-5" edge="1">
          <mxGeometry relative="1" as="geometry">
            <mxPoint x="599.7800000000002" y="1271.255" as="targetPoint" />
            <mxPoint x="589.22" y="1349.8099999999997" as="sourcePoint" />
            <Array as="points">
              <mxPoint x="600" y="1350" />
              <mxPoint x="530" y="1350" />
              <mxPoint x="530" y="1271" />
            </Array>
          </mxGeometry>
        </mxCell>
        <mxCell id="24dlo2Oe-C9Dlj7PTrNW-11" style="edgeStyle=orthogonalEdgeStyle;rounded=0;orthogonalLoop=1;jettySize=auto;html=1;entryX=0;entryY=0.25;entryDx=0;entryDy=0;" edge="1" parent="1" source="3hG0GHVjgq0r3S_JtBMw-9" target="I6CR4W8xnP3kJ_g0KGb4-1">
          <mxGeometry relative="1" as="geometry">
            <Array as="points">
              <mxPoint x="48" y="336" />
              <mxPoint x="48" y="90" />
            </Array>
          </mxGeometry>
        </mxCell>
        <mxCell id="3hG0GHVjgq0r3S_JtBMw-9" value="T_ID" style="rounded=0;whiteSpace=wrap;html=1;" parent="1" vertex="1">
          <mxGeometry x="67.8599999999999" y="320.0799999999999" width="79.33" height="31.65" as="geometry" />
        </mxCell>
        <mxCell id="3hG0GHVjgq0r3S_JtBMw-10" value="T_type" style="rounded=0;whiteSpace=wrap;html=1;" parent="1" vertex="1">
          <mxGeometry x="148.0999999999999" y="320.0799999999999" width="95.38" height="31.65" as="geometry" />
        </mxCell>
        <mxCell id="3hG0GHVjgq0r3S_JtBMw-11" value="&lt;b&gt;Train Station Type&lt;/b&gt;" style="text;html=1;align=center;verticalAlign=middle;whiteSpace=wrap;rounded=0;" parent="1" vertex="1">
          <mxGeometry x="49.99000000000001" y="300" width="110.29" height="20.08" as="geometry" />
        </mxCell>
        <mxCell id="3hG0GHVjgq0r3S_JtBMw-12" value="" style="endArrow=none;html=1;rounded=0;" parent="1" edge="1">
          <mxGeometry width="50" height="50" relative="1" as="geometry">
            <mxPoint x="73.77513513513509" y="342.842314049587" as="sourcePoint" />
            <mxPoint x="228.18999999999994" y="342.73" as="targetPoint" />
            <Array as="points">
              <mxPoint x="228.18999999999994" y="342.73" />
            </Array>
          </mxGeometry>
        </mxCell>
        <mxCell id="24dlo2Oe-C9Dlj7PTrNW-12" style="edgeStyle=orthogonalEdgeStyle;rounded=0;orthogonalLoop=1;jettySize=auto;html=1;" edge="1" parent="1" source="3hG0GHVjgq0r3S_JtBMw-13">
          <mxGeometry relative="1" as="geometry">
            <mxPoint x="70" y="160" as="targetPoint" />
            <Array as="points">
              <mxPoint x="40" y="402" />
              <mxPoint x="40" y="160" />
            </Array>
          </mxGeometry>
        </mxCell>
        <mxCell id="3hG0GHVjgq0r3S_JtBMw-13" value="B_ID" style="rounded=0;whiteSpace=wrap;html=1;" parent="1" vertex="1">
          <mxGeometry x="63.26999999999998" y="386.28999999999985" width="79.33" height="31.65" as="geometry" />
        </mxCell>
        <mxCell id="3hG0GHVjgq0r3S_JtBMw-14" value="B_type" style="rounded=0;whiteSpace=wrap;html=1;" parent="1" vertex="1">
          <mxGeometry x="143.51" y="386.28999999999985" width="95.38" height="31.65" as="geometry" />
        </mxCell>
        <mxCell id="3hG0GHVjgq0r3S_JtBMw-15" value="&lt;div style=&quot;text-align: start;&quot;&gt;&lt;b&gt;Bus Station Type&lt;/b&gt;&lt;/div&gt;" style="text;html=1;align=center;verticalAlign=middle;whiteSpace=wrap;rounded=0;" parent="1" vertex="1">
          <mxGeometry x="45.39999999999998" y="366.21000000000004" width="159.59" height="20.08" as="geometry" />
        </mxCell>
        <mxCell id="3hG0GHVjgq0r3S_JtBMw-16" value="" style="endArrow=none;html=1;rounded=0;" parent="1" edge="1">
          <mxGeometry width="50" height="50" relative="1" as="geometry">
            <mxPoint x="69.18513513513517" y="409.0523140495869" as="sourcePoint" />
            <mxPoint x="223.60000000000002" y="408.93999999999994" as="targetPoint" />
            <Array as="points">
              <mxPoint x="223.60000000000002" y="408.93999999999994" />
            </Array>
          </mxGeometry>
        </mxCell>
        <mxCell id="sf8xzljUSYk9UL8--ckU-7" value="&lt;b&gt;Email&lt;/b&gt;" style="text;html=1;align=center;verticalAlign=middle;whiteSpace=wrap;rounded=0;" parent="1" vertex="1">
          <mxGeometry x="498.96" y="420.46000000000004" width="90.44" height="20.08" as="geometry" />
        </mxCell>
        <mxCell id="0aOix7UilM6wZBq1rscu-11" value="&lt;u&gt;B_ID&lt;/u&gt;" style="rounded=0;whiteSpace=wrap;html=1;" vertex="1" parent="1">
          <mxGeometry x="74.25297297297297" y="150.83214876033057" width="49.2972972972973" height="26.776859504132233" as="geometry" />
        </mxCell>
        <mxCell id="0aOix7UilM6wZBq1rscu-12" value="B_Name" style="rounded=0;whiteSpace=wrap;html=1;" vertex="1" parent="1">
          <mxGeometry x="123.55" y="150.83" width="56.72" height="26.78" as="geometry" />
        </mxCell>
        <mxCell id="0aOix7UilM6wZBq1rscu-13" value="B_Address" style="rounded=0;whiteSpace=wrap;html=1;" vertex="1" parent="1">
          <mxGeometry x="180.27" y="150.81" width="80.58" height="26.78" as="geometry" />
        </mxCell>
        <mxCell id="24dlo2Oe-C9Dlj7PTrNW-2" style="edgeStyle=orthogonalEdgeStyle;rounded=0;orthogonalLoop=1;jettySize=auto;html=1;entryX=0.5;entryY=0;entryDx=0;entryDy=0;" edge="1" parent="1" source="0aOix7UilM6wZBq1rscu-14" target="I6CR4W8xnP3kJ_g0KGb4-14">
          <mxGeometry relative="1" as="geometry">
            <Array as="points">
              <mxPoint x="375" y="190" />
              <mxPoint x="111" y="190" />
            </Array>
          </mxGeometry>
        </mxCell>
        <mxCell id="0aOix7UilM6wZBq1rscu-14" value="Station_ID" style="rounded=0;whiteSpace=wrap;html=1;" vertex="1" parent="1">
          <mxGeometry x="345.27" y="150" width="60" height="27.58" as="geometry" />
        </mxCell>
        <mxCell id="0aOix7UilM6wZBq1rscu-15" value="B_Capacity" style="rounded=0;whiteSpace=wrap;html=1;" vertex="1" parent="1">
          <mxGeometry x="260.84999999999997" y="150.7" width="84.06" height="27" as="geometry" />
        </mxCell>
        <mxCell id="24dlo2Oe-C9Dlj7PTrNW-1" value="Type" style="rounded=0;whiteSpace=wrap;html=1;" vertex="1" parent="1">
          <mxGeometry x="203.39" y="234.56" width="55.46" height="34.38" as="geometry" />
        </mxCell>
        <mxCell id="24dlo2Oe-C9Dlj7PTrNW-13" value="T_ID" style="rounded=0;whiteSpace=wrap;html=1;" vertex="1" parent="1">
          <mxGeometry x="318.1991891891892" y="371.810826446281" width="73.94594594594595" height="26.776859504132233" as="geometry" />
        </mxCell>
        <mxCell id="rYrEV2N6IXelQXsVLYJF-3" style="edgeStyle=orthogonalEdgeStyle;rounded=0;orthogonalLoop=1;jettySize=auto;html=1;entryX=0.5;entryY=1;entryDx=0;entryDy=0;" edge="1" parent="1" source="24dlo2Oe-C9Dlj7PTrNW-14" target="I6CR4W8xnP3kJ_g0KGb4-14">
          <mxGeometry relative="1" as="geometry">
            <Array as="points">
              <mxPoint x="429" y="290" />
              <mxPoint x="111" y="290" />
            </Array>
          </mxGeometry>
        </mxCell>
        <mxCell id="24dlo2Oe-C9Dlj7PTrNW-14" value="Station_ID" style="rounded=0;whiteSpace=wrap;html=1;" vertex="1" parent="1">
          <mxGeometry x="392.14513513513515" y="371.810826446281" width="73.32972972972973" height="26.776859504132233" as="geometry" />
        </mxCell>
        <mxCell id="24dlo2Oe-C9Dlj7PTrNW-15" value="&lt;b&gt;Buy at&lt;/b&gt;" style="text;html=1;align=center;verticalAlign=middle;whiteSpace=wrap;rounded=0;" vertex="1" parent="1">
          <mxGeometry x="277.00000000000006" y="351.73" width="108.69" height="20.08" as="geometry" />
        </mxCell>
        <mxCell id="rYrEV2N6IXelQXsVLYJF-1" value="" style="endArrow=none;html=1;rounded=0;" edge="1" parent="1">
          <mxGeometry width="50" height="50" relative="1" as="geometry">
            <mxPoint x="330" y="393" as="sourcePoint" />
            <mxPoint x="465.47" y="392.99999999999994" as="targetPoint" />
            <Array as="points">
              <mxPoint x="465.47" y="392.99999999999994" />
            </Array>
          </mxGeometry>
        </mxCell>
      </root>
    </mxGraphModel>
  </diagram>
</mxfile>
